<svg xmlns="http://www.w3.org/2000/svg" width="39.584" height="45.272" viewBox="0 0 39.584 45.272">
  <defs>
    <style>
      .cls-1 {
        fill: #fff;
        stroke: #fff;
      }
    </style>
  </defs>
  <path id="Marenas_Anagram" data-name="Marenas Anagram" class="cls-1" d="M20.229,31.972a26.556,26.556,0,0,1,2.154,4.277,10.819,10.819,0,0,1,.718,3.84,4.386,4.386,0,0,1-1.062,2.934,3.436,3.436,0,0,1-2.747,1.249,3.57,3.57,0,0,1-2.778-1.217,4.282,4.282,0,0,1-1.093-2.966,10.455,10.455,0,0,1,.905-4.246,43.448,43.448,0,0,1,1.967-3.934L1.624,4.064V43.4a.717.717,0,0,1-.812.811A.717.717,0,0,1,0,43.4V1.067q0-1,.593-1a1.043,1.043,0,0,1,.9.437L19.293,30.286,37.024.63a1.064,1.064,0,0,1,1-.624q.562.062.562.874V43.4a.748.748,0,0,1-.25.593.833.833,0,0,1-1.124,0,.749.749,0,0,1-.249-.593V4.064ZM17.763,41.993a2.012,2.012,0,0,0,1.529.718,1.979,1.979,0,0,0,1.529-.749,2.74,2.74,0,0,0,.656-1.873,8.825,8.825,0,0,0-.624-3.309A24.811,24.811,0,0,0,19.293,33.6a30.644,30.644,0,0,0-1.529,3.122,8.615,8.615,0,0,0-.656,3.371,2.714,2.714,0,0,0,.656,1.9" transform="translate(0.499 0.5)"/>
</svg>
