<svg xmlns="http://www.w3.org/2000/svg" xmlns:xlink="http://www.w3.org/1999/xlink" width="181" height="262.772" viewBox="0 0 181 262.772">
  <defs>
    <style>
      .cls-1 {
        fill: #004257;
      }

      .cls-1, .cls-2, .cls-6 {
        stroke: #fff;
      }

      .cls-2, .cls-7 {
        fill: #fff;
      }

      .cls-3 {
        fill: #f4809b;
      }

      .cls-4 {
        opacity: 0.139;
      }

      .cls-5 {
        fill: url(#radial-gradient);
      }

      .cls-6 {
        fill: none;
      }

      .cls-8 {
        filter: url(#Ellipse_33);
      }

      .cls-9 {
        filter: url(#Ellipse_30);
      }

      .cls-10 {
        filter: url(#Union_2);
      }
    </style>
    <filter id="Union_2" x="21.841" y="26.385" width="144.675" height="236.387" filterUnits="userSpaceOnUse">
      <feOffset input="SourceAlpha"/>
      <feGaussianBlur stdDeviation="10" result="blur"/>
      <feFlood flood-opacity="0.161"/>
      <feComposite operator="in" in2="blur"/>
      <feComposite in="SourceGraphic"/>
    </filter>
    <filter id="Ellipse_30" x="0" y="0" width="181" height="180" filterUnits="userSpaceOnUse">
      <feOffset input="SourceAlpha"/>
      <feGaussianBlur stdDeviation="20" result="blur-2"/>
      <feFlood flood-opacity="0.192"/>
      <feComposite operator="in" in2="blur-2"/>
      <feComposite in="SourceGraphic"/>
    </filter>
    <filter id="Ellipse_33" x="53" y="56" width="74" height="74" filterUnits="userSpaceOnUse">
      <feOffset dy="3" input="SourceAlpha"/>
      <feGaussianBlur stdDeviation="3" result="blur-3"/>
      <feFlood flood-opacity="0.545"/>
      <feComposite operator="in" in2="blur-3"/>
      <feComposite in="SourceGraphic"/>
    </filter>
    <radialGradient id="radial-gradient" cx="0.5" cy="0.5" r="0.5" gradientUnits="objectBoundingBox">
      <stop offset="0" stop-color="#ffbebe"/>
      <stop offset="1" stop-color="#ffb2b2" stop-opacity="0"/>
    </radialGradient>
  </defs>
  <g id="Manija" transform="translate(-94 1)">
    <g class="cls-10" transform="matrix(1, 0, 0, 1, 94, -1)">
      <path id="Union_2-2" data-name="Union 2" class="cls-1" d="M5.2,170.722a5.2,5.2,0,0,1-5.2-5.2V71.913a5.2,5.2,0,0,1,5.2-5.2H22.447c11.088,0,35.983.578,34.272-26.01-.736-11.454-9.3-20.783-20.783-20.783A20.783,20.783,0,0,0,15.154,40.707v.416a5.287,5.287,0,0,1-5.324,5.25H5.324A5.288,5.288,0,0,1,0,41.123V35.966a5.42,5.42,0,0,1,.074-.843A5.42,5.42,0,0,0,0,35.966v-.075a5.335,5.335,0,0,1,.073-.829v-.021C.073,15.689,16.129,0,35.936,0S71.8,15.689,71.8,35.042c0,.028,0,.055,0,.082a5.207,5.207,0,0,1,.074.842v129.56a5.2,5.2,0,0,1-5.2,5.2Z" transform="matrix(1, -0.07, 0.07, 1, 52.37, 61.93)"/>
    </g>
    <path id="Path_263" data-name="Path 263" class="cls-2" d="M11.5,18.18a15.1,15.1,0,0,1,1.225,2.432,6.152,6.152,0,0,1,.408,2.183,2.494,2.494,0,0,1-.6,1.668,1.954,1.954,0,0,1-1.562.71,2.03,2.03,0,0,1-1.58-.692A2.435,2.435,0,0,1,8.769,22.8a5.945,5.945,0,0,1,.515-2.414A24.705,24.705,0,0,1,10.4,18.144L.923,2.311V24.677a.408.408,0,0,1-.462.461A.408.408,0,0,1,0,24.677V.606Q0,.038.337.038A.593.593,0,0,1,.852.287L10.97,17.221,21.052.358A.605.605,0,0,1,21.621,0q.319.035.319.5V24.677a.425.425,0,0,1-.142.337.474.474,0,0,1-.639,0,.426.426,0,0,1-.142-.337V2.311Zm-1.4,5.7a1.144,1.144,0,0,0,.87.408,1.126,1.126,0,0,0,.87-.426,1.558,1.558,0,0,0,.373-1.065,5.018,5.018,0,0,0-.355-1.882,14.108,14.108,0,0,0-.887-1.81,17.425,17.425,0,0,0-.87,1.775A4.9,4.9,0,0,0,9.727,22.8a1.544,1.544,0,0,0,.373,1.083" transform="matrix(0.998, -0.07, 0.07, 0.998, 175.724, 144.124)"/>
    <g id="Group_183" data-name="Group 183" transform="translate(154.365 58.878)">
      <g class="cls-9" transform="matrix(1, 0, 0, 1, -60.36, -59.88)">
        <ellipse id="Ellipse_30-2" data-name="Ellipse 30" class="cls-3" cx="30.5" cy="30" rx="30.5" ry="30" transform="translate(60 60)"/>
      </g>
      <g class="cls-8" transform="matrix(1, 0, 0, 1, -60.36, -59.88)">
        <circle id="Ellipse_33-2" data-name="Ellipse 33" class="cls-3" cx="28" cy="28" r="28" transform="translate(62 62)"/>
      </g>
      <ellipse id="Ellipse_31" data-name="Ellipse 31" class="cls-4" cx="20.5" cy="21" rx="20.5" ry="21" transform="translate(9.635 9.122)"/>
      <ellipse id="Ellipse_32" data-name="Ellipse 32" class="cls-5" cx="8.5" cy="4" rx="8.5" ry="4" transform="translate(21.635 0.122)"/>
    </g>
    <path id="Path_264" data-name="Path 264" class="cls-6" d="M0,0A33.161,33.161,0,0,0,11.509,21.234" transform="matrix(0.052, -0.999, 0.999, 0.052, 224.604, 239.241)"/>
    <g id="magic-wand" transform="translate(179.512 184.079)">
      <g id="Group_185" data-name="Group 185" transform="translate(23.044 0.904)">
        <g id="Group_184" data-name="Group 184">
          <path id="Path_265" data-name="Path 265" class="cls-7" d="M474.256,18.72a.487.487,0,1,0,0,.688A.486.486,0,0,0,474.256,18.72Z" transform="translate(-473.425 -18.577)"/>
        </g>
      </g>
      <g id="Group_187" data-name="Group 187" transform="translate(23.044 14.672)">
        <g id="Group_186" data-name="Group 186">
          <path id="Path_266" data-name="Path 266" class="cls-7" d="M474.257,301.565a.487.487,0,1,0,0,.688A.487.487,0,0,0,474.257,301.565Z" transform="translate(-473.426 -301.423)"/>
        </g>
      </g>
      <g id="Group_189" data-name="Group 189" transform="translate(9.276 0.904)">
        <g id="Group_188" data-name="Group 188">
          <path id="Path_267" data-name="Path 267" class="cls-7" d="M191.412,18.72a.487.487,0,1,0,0,.688A.486.486,0,0,0,191.412,18.72Z" transform="translate(-190.581 -18.577)"/>
        </g>
      </g>
      <g id="Group_191" data-name="Group 191" transform="translate(0 5.871)">
        <g id="Group_190" data-name="Group 190" transform="translate(0)">
          <path id="Path_268" data-name="Path 268" class="cls-7" d="M18.624,121.721l-.688-.688a1.462,1.462,0,0,0-2.065,0L.428,136.476a1.459,1.459,0,0,0,0,2.065l.688.688a1.459,1.459,0,0,0,2.065,0l15.443-15.443A1.462,1.462,0,0,0,18.624,121.721ZM2.492,138.541a.486.486,0,0,1-.688,0l-.688-.688a.486.486,0,0,1,0-.688l11.657-11.657,1.376,1.376ZM17.936,123.1l-3.1,3.1-1.376-1.376,3.1-3.1a.487.487,0,0,1,.688,0l.688.688A.487.487,0,0,1,17.936,123.1Z" transform="translate(0 -120.606)"/>
        </g>
      </g>
      <g id="Group_193" data-name="Group 193" transform="translate(8.372 7.788)">
        <g id="Group_192" data-name="Group 192">
          <path id="Path_269" data-name="Path 269" class="cls-7" d="M175.409,160h-2.921a.487.487,0,1,0,0,.974h2.921a.487.487,0,1,0,0-.974Z" transform="translate(-172.002 -159.999)"/>
        </g>
      </g>
      <g id="Group_195" data-name="Group 195" transform="translate(21.027 7.788)">
        <g id="Group_194" data-name="Group 194">
          <path id="Path_270" data-name="Path 270" class="cls-7" d="M435.407,160h-2.921a.487.487,0,0,0,0,.974h2.921a.487.487,0,1,0,0-.974Z" transform="translate(-432 -159.999)"/>
        </g>
      </g>
      <g id="Group_197" data-name="Group 197" transform="translate(16.16 12.656)">
        <g id="Group_196" data-name="Group 196">
          <path id="Path_271" data-name="Path 271" class="cls-7" d="M332.489,260a.487.487,0,0,0-.487.487v2.921a.487.487,0,0,0,.974,0v-2.921A.487.487,0,0,0,332.489,260Z" transform="translate(-332.002 -259.998)"/>
        </g>
      </g>
      <g id="Group_199" data-name="Group 199" transform="translate(16.16)">
        <g id="Group_198" data-name="Group 198">
          <path id="Path_272" data-name="Path 272" class="cls-7" d="M332.489,0A.487.487,0,0,0,332,.487V3.407a.487.487,0,0,0,.974,0V.487A.487.487,0,0,0,332.489,0Z" transform="translate(-332.002)"/>
        </g>
      </g>
      <g id="Group_201" data-name="Group 201" transform="translate(19.602 11.23)">
        <g id="Group_200" data-name="Group 200">
          <path id="Path_273" data-name="Path 273" class="cls-7" d="M405.607,232.915l-2.065-2.065a.487.487,0,0,0-.688.688l2.065,2.065a.487.487,0,0,0,.688-.688Z" transform="translate(-402.71 -230.707)"/>
        </g>
      </g>
      <g id="Group_203" data-name="Group 203" transform="translate(10.653 2.281)">
        <g id="Group_202" data-name="Group 202">
          <path id="Path_274" data-name="Path 274" class="cls-7" d="M221.759,49.066,219.693,47a.487.487,0,1,0-.688.688l2.065,2.065a.487.487,0,0,0,.688-.688Z" transform="translate(-218.862 -46.858)"/>
        </g>
      </g>
      <g id="Group_205" data-name="Group 205" transform="translate(19.602 2.281)">
        <g id="Group_204" data-name="Group 204">
          <path id="Path_275" data-name="Path 275" class="cls-7" d="M405.608,47a.487.487,0,0,0-.688,0l-2.065,2.065a.487.487,0,0,0,.688.688l2.065-2.065A.487.487,0,0,0,405.608,47Z" transform="translate(-402.711 -46.859)"/>
        </g>
      </g>
    </g>
  </g>
</svg>
